<svg xmlns="http://www.w3.org/2000/svg" width="25" height="24" viewBox="0 0 25 24" fill="none">
<path fill-rule="evenodd" clip-rule="evenodd" d="M12.5 22.8C18.4647 22.8 23.3 17.9648 23.3 12C23.3 6.03533 18.4648 1.19997 12.5 1.19997C6.53533 1.19997 1.69997 6.03533 1.69997 12C1.69997 17.9647 6.53533 22.8 12.5 22.8ZM12.5 24C19.1273 24 24.5 18.6273 24.5 12C24.5 5.37253 19.1273 0 12.5 0C5.87253 0 0.5 5.37253 0.5 12C0.5 18.6273 5.87253 24 12.5 24Z" fill="#1c0211"/>
<path fill-rule="evenodd" clip-rule="evenodd" d="M15.6183 12L10.1 8.3212V15.679L15.6183 12ZM16.7332 11.3011C17.232 11.6337 17.232 12.3665 16.7332 12.699L10.2059 17.0506C9.64767 17.4228 8.8999 17.0225 8.8999 16.3516V7.64852C8.8999 6.97762 9.64767 6.57746 10.2059 6.94963L16.7332 11.3011Z" fill="#1c0211"/>
</svg>